<mxfile host="app.diagrams.net" agent="Mozilla/5.0 (X11; Linux x86_64) AppleWebKit/537.36 (KHTML, like Gecko) Chrome/139.0.0.0 Safari/537.36" version="28.1.1">
  <diagram name="Page-1" id="ABN3BvkuotqSX5Jvn479">
    <mxGraphModel dx="939" dy="1011" grid="1" gridSize="10" guides="1" tooltips="1" connect="1" arrows="1" fold="1" page="1" pageScale="1" pageWidth="1100" pageHeight="850" math="0" shadow="0">
      <root>
        <mxCell id="0" />
        <mxCell id="1" parent="0" />
        <mxCell id="-5HofX6V-b1JRLDoJA_T-1" value="users" style="swimlane;childLayout=stackLayout;horizontal=1;startSize=50;horizontalStack=0;rounded=1;fontSize=14;fontStyle=0;strokeWidth=2;resizeParent=0;resizeLast=1;shadow=0;dashed=0;align=center;arcSize=4;whiteSpace=wrap;html=1;" vertex="1" parent="1">
          <mxGeometry x="30" y="310" width="160" height="180" as="geometry" />
        </mxCell>
        <mxCell id="-5HofX6V-b1JRLDoJA_T-2" value="+ user_id [PK]&lt;div&gt;+ created_at&lt;br&gt;&lt;div&gt;+ first_name&lt;div&gt;+ last_name&lt;/div&gt;&lt;div&gt;+ username&lt;/div&gt;&lt;div&gt;+ email&lt;/div&gt;&lt;div&gt;&lt;span style=&quot;background-color: transparent; color: light-dark(rgb(0, 0, 0), rgb(255, 255, 255));&quot;&gt;+ last_weekly_review&amp;nbsp;&lt;/span&gt;&lt;/div&gt;&lt;div&gt;&lt;span style=&quot;background-color: transparent; color: light-dark(rgb(0, 0, 0), rgb(255, 255, 255));&quot;&gt;+ timestamp_created&lt;/span&gt;&lt;/div&gt;&lt;div&gt;&lt;br&gt;&lt;/div&gt;&lt;/div&gt;&lt;/div&gt;" style="align=left;strokeColor=none;fillColor=none;spacingLeft=4;spacingRight=4;fontSize=12;verticalAlign=top;resizable=0;rotatable=0;part=1;html=1;whiteSpace=wrap;" vertex="1" parent="-5HofX6V-b1JRLDoJA_T-1">
          <mxGeometry y="50" width="160" height="130" as="geometry" />
        </mxCell>
        <mxCell id="-5HofX6V-b1JRLDoJA_T-3" value="next_actions" style="swimlane;childLayout=stackLayout;horizontal=1;startSize=50;horizontalStack=0;rounded=1;fontSize=14;fontStyle=0;strokeWidth=2;resizeParent=0;resizeLast=1;shadow=0;dashed=0;align=center;arcSize=4;whiteSpace=wrap;html=1;" vertex="1" parent="1">
          <mxGeometry x="890" y="340" width="190" height="220" as="geometry" />
        </mxCell>
        <mxCell id="-5HofX6V-b1JRLDoJA_T-4" value="+ next_action_id [PK]&lt;div&gt;+ content&lt;br&gt;&lt;div&gt;+ created_at&lt;br&gt;&lt;div&gt;+ associated_user_id [FK]&lt;div&gt;&lt;div&gt;+ due_date&lt;/div&gt;&lt;div&gt;+ start_date&lt;/div&gt;&lt;div&gt;+ end_date&lt;/div&gt;&lt;div&gt;&lt;span style=&quot;background-color: transparent; color: light-dark(rgb(0, 0, 0), rgb(255, 255, 255));&quot;&gt;+ due_time&lt;/span&gt;&lt;/div&gt;&lt;div&gt;+ start_time&lt;/div&gt;&lt;div&gt;+ end_time&lt;/div&gt;&lt;/div&gt;&lt;div&gt;+ complete&lt;/div&gt;&lt;/div&gt;&lt;/div&gt;&lt;/div&gt;" style="align=left;strokeColor=none;fillColor=none;spacingLeft=4;spacingRight=4;fontSize=12;verticalAlign=top;resizable=0;rotatable=0;part=1;html=1;whiteSpace=wrap;" vertex="1" parent="-5HofX6V-b1JRLDoJA_T-3">
          <mxGeometry y="50" width="190" height="170" as="geometry" />
        </mxCell>
        <mxCell id="-5HofX6V-b1JRLDoJA_T-5" value="projects" style="swimlane;childLayout=stackLayout;horizontal=1;startSize=50;horizontalStack=0;rounded=1;fontSize=14;fontStyle=0;strokeWidth=2;resizeParent=0;resizeLast=1;shadow=0;dashed=0;align=center;arcSize=4;whiteSpace=wrap;html=1;" vertex="1" parent="1">
          <mxGeometry x="480" y="130" width="162" height="232" as="geometry" />
        </mxCell>
        <mxCell id="-5HofX6V-b1JRLDoJA_T-6" value="+ project_id [PK]&lt;div&gt;+ created_at&lt;br&gt;&lt;div&gt;+ associated_user_id [FK]&lt;br&gt;&lt;/div&gt;&lt;div&gt;+ title&lt;/div&gt;&lt;div&gt;+ goal&lt;/div&gt;&lt;div&gt;+ due_date&lt;/div&gt;&lt;div&gt;+ start_date&lt;/div&gt;&lt;div&gt;+ end_date&lt;/div&gt;&lt;div&gt;&lt;span style=&quot;background-color: transparent; color: light-dark(rgb(0, 0, 0), rgb(255, 255, 255));&quot;&gt;+ due_time&lt;/span&gt;&lt;/div&gt;&lt;div&gt;+ start_time&lt;/div&gt;&lt;div&gt;+ end_time&lt;/div&gt;&lt;div&gt;+ complete&lt;/div&gt;&lt;div&gt;&lt;br&gt;&lt;/div&gt;&lt;/div&gt;" style="align=left;strokeColor=none;fillColor=none;spacingLeft=4;spacingRight=4;fontSize=12;verticalAlign=top;resizable=0;rotatable=0;part=1;html=1;whiteSpace=wrap;" vertex="1" parent="-5HofX6V-b1JRLDoJA_T-5">
          <mxGeometry y="50" width="162" height="182" as="geometry" />
        </mxCell>
        <mxCell id="-5HofX6V-b1JRLDoJA_T-7" value="someday_maybe" style="swimlane;childLayout=stackLayout;horizontal=1;startSize=50;horizontalStack=0;rounded=1;fontSize=14;fontStyle=0;strokeWidth=2;resizeParent=0;resizeLast=1;shadow=0;dashed=0;align=center;arcSize=4;whiteSpace=wrap;html=1;" vertex="1" parent="1">
          <mxGeometry x="322" y="700" width="169" height="115" as="geometry" />
        </mxCell>
        <mxCell id="-5HofX6V-b1JRLDoJA_T-8" value="+ someday_maybe_id [PK]&lt;div&gt;+ created_at&lt;br&gt;&lt;div&gt;+ associated_user_id [FK]&lt;br&gt;&lt;/div&gt;&lt;div&gt;+ content&lt;/div&gt;&lt;/div&gt;" style="align=left;strokeColor=none;fillColor=none;spacingLeft=4;spacingRight=4;fontSize=12;verticalAlign=top;resizable=0;rotatable=0;part=1;html=1;whiteSpace=wrap;" vertex="1" parent="-5HofX6V-b1JRLDoJA_T-7">
          <mxGeometry y="50" width="169" height="65" as="geometry" />
        </mxCell>
        <mxCell id="-5HofX6V-b1JRLDoJA_T-9" value="contexts" style="swimlane;childLayout=stackLayout;horizontal=1;startSize=50;horizontalStack=0;rounded=1;fontSize=14;fontStyle=0;strokeWidth=2;resizeParent=0;resizeLast=1;shadow=0;dashed=0;align=center;arcSize=4;whiteSpace=wrap;html=1;" vertex="1" parent="1">
          <mxGeometry x="350" y="460" width="191" height="116" as="geometry" />
        </mxCell>
        <mxCell id="-5HofX6V-b1JRLDoJA_T-10" value="+ context_id [PK]&lt;div&gt;+ created_at&lt;/div&gt;&lt;div&gt;+ associated_user_id [FK]&lt;/div&gt;&lt;div&gt;+ title&lt;/div&gt;" style="align=left;strokeColor=none;fillColor=none;spacingLeft=4;spacingRight=4;fontSize=12;verticalAlign=top;resizable=0;rotatable=0;part=1;html=1;whiteSpace=wrap;" vertex="1" parent="-5HofX6V-b1JRLDoJA_T-9">
          <mxGeometry y="50" width="191" height="66" as="geometry" />
        </mxCell>
        <mxCell id="-5HofX6V-b1JRLDoJA_T-11" value="inbox" style="swimlane;childLayout=stackLayout;horizontal=1;startSize=50;horizontalStack=0;rounded=1;fontSize=14;fontStyle=0;strokeWidth=2;resizeParent=0;resizeLast=1;shadow=0;dashed=0;align=center;arcSize=4;whiteSpace=wrap;html=1;" vertex="1" parent="1">
          <mxGeometry x="280" y="30" width="160" height="116" as="geometry" />
        </mxCell>
        <mxCell id="-5HofX6V-b1JRLDoJA_T-12" value="+ stupf_id [PK]&lt;div&gt;+ created_at&lt;br&gt;&lt;div&gt;+ associated_user_id [FK]&lt;br&gt;&lt;/div&gt;&lt;div&gt;+ content&lt;/div&gt;&lt;/div&gt;" style="align=left;strokeColor=none;fillColor=none;spacingLeft=4;spacingRight=4;fontSize=12;verticalAlign=top;resizable=0;rotatable=0;part=1;html=1;whiteSpace=wrap;" vertex="1" parent="-5HofX6V-b1JRLDoJA_T-11">
          <mxGeometry y="50" width="160" height="66" as="geometry" />
        </mxCell>
        <mxCell id="-5HofX6V-b1JRLDoJA_T-13" value="" style="edgeStyle=entityRelationEdgeStyle;fontSize=12;html=1;endArrow=ERoneToMany;rounded=0;exitX=1;exitY=0.5;exitDx=0;exitDy=0;entryX=0;entryY=0.25;entryDx=0;entryDy=0;" edge="1" parent="1" source="-5HofX6V-b1JRLDoJA_T-5" target="-5HofX6V-b1JRLDoJA_T-24">
          <mxGeometry width="100" height="100" relative="1" as="geometry">
            <mxPoint x="586" y="298" as="sourcePoint" />
            <mxPoint x="686" y="198" as="targetPoint" />
            <Array as="points">
              <mxPoint x="724" y="241" />
              <mxPoint x="656" y="202" />
              <mxPoint x="611" y="198" />
              <mxPoint x="705" y="127" />
            </Array>
          </mxGeometry>
        </mxCell>
        <mxCell id="-5HofX6V-b1JRLDoJA_T-14" value="" style="edgeStyle=entityRelationEdgeStyle;fontSize=12;html=1;endArrow=ERoneToMany;rounded=0;exitX=1;exitY=0.25;exitDx=0;exitDy=0;entryX=0;entryY=0;entryDx=0;entryDy=0;" edge="1" parent="1" source="-5HofX6V-b1JRLDoJA_T-2" target="-5HofX6V-b1JRLDoJA_T-12">
          <mxGeometry width="100" height="100" relative="1" as="geometry">
            <mxPoint x="260" y="434" as="sourcePoint" />
            <mxPoint x="394" y="363" as="targetPoint" />
            <Array as="points">
              <mxPoint x="418" y="395" />
              <mxPoint x="350" y="356" />
              <mxPoint x="305" y="352" />
              <mxPoint x="399" y="281" />
            </Array>
          </mxGeometry>
        </mxCell>
        <mxCell id="-5HofX6V-b1JRLDoJA_T-15" value="" style="edgeStyle=entityRelationEdgeStyle;fontSize=12;html=1;endArrow=ERoneToMany;rounded=0;exitX=1;exitY=0.25;exitDx=0;exitDy=0;entryX=0;entryY=0.25;entryDx=0;entryDy=0;" edge="1" parent="1" source="-5HofX6V-b1JRLDoJA_T-2" target="-5HofX6V-b1JRLDoJA_T-6">
          <mxGeometry width="100" height="100" relative="1" as="geometry">
            <mxPoint x="414" y="362" as="sourcePoint" />
            <mxPoint x="548" y="291" as="targetPoint" />
            <Array as="points">
              <mxPoint x="572" y="323" />
              <mxPoint x="504" y="284" />
              <mxPoint x="459" y="280" />
              <mxPoint x="553" y="209" />
            </Array>
          </mxGeometry>
        </mxCell>
        <mxCell id="-5HofX6V-b1JRLDoJA_T-16" value="" style="edgeStyle=entityRelationEdgeStyle;fontSize=12;html=1;endArrow=ERoneToMany;rounded=0;exitX=1;exitY=0.25;exitDx=0;exitDy=0;entryX=0;entryY=0.25;entryDx=0;entryDy=0;" edge="1" parent="1" source="-5HofX6V-b1JRLDoJA_T-2" target="-5HofX6V-b1JRLDoJA_T-4">
          <mxGeometry width="100" height="100" relative="1" as="geometry">
            <mxPoint x="375" y="591" as="sourcePoint" />
            <mxPoint x="509" y="520" as="targetPoint" />
            <Array as="points">
              <mxPoint x="533" y="552" />
              <mxPoint x="465" y="513" />
              <mxPoint x="420" y="509" />
              <mxPoint x="514" y="438" />
            </Array>
          </mxGeometry>
        </mxCell>
        <mxCell id="-5HofX6V-b1JRLDoJA_T-17" value="" style="edgeStyle=entityRelationEdgeStyle;fontSize=12;html=1;endArrow=ERoneToMany;rounded=0;exitX=1;exitY=0.25;exitDx=0;exitDy=0;entryX=0;entryY=0.5;entryDx=0;entryDy=0;" edge="1" parent="1" source="-5HofX6V-b1JRLDoJA_T-2" target="-5HofX6V-b1JRLDoJA_T-9">
          <mxGeometry width="100" height="100" relative="1" as="geometry">
            <mxPoint x="418" y="637" as="sourcePoint" />
            <mxPoint x="552" y="566" as="targetPoint" />
            <Array as="points">
              <mxPoint x="576" y="598" />
              <mxPoint x="508" y="559" />
              <mxPoint x="463" y="555" />
              <mxPoint x="557" y="484" />
            </Array>
          </mxGeometry>
        </mxCell>
        <mxCell id="-5HofX6V-b1JRLDoJA_T-18" value="" style="edgeStyle=entityRelationEdgeStyle;fontSize=12;html=1;endArrow=ERoneToMany;rounded=0;exitX=1;exitY=0.25;exitDx=0;exitDy=0;entryX=0;entryY=0;entryDx=0;entryDy=0;" edge="1" parent="1" source="-5HofX6V-b1JRLDoJA_T-2" target="-5HofX6V-b1JRLDoJA_T-8">
          <mxGeometry width="100" height="100" relative="1" as="geometry">
            <mxPoint x="430" y="424" as="sourcePoint" />
            <mxPoint x="820" y="413" as="targetPoint" />
            <Array as="points">
              <mxPoint x="727" y="551" />
              <mxPoint x="659" y="512" />
              <mxPoint x="614" y="508" />
              <mxPoint x="708" y="437" />
            </Array>
          </mxGeometry>
        </mxCell>
        <mxCell id="-5HofX6V-b1JRLDoJA_T-19" value="" style="edgeStyle=entityRelationEdgeStyle;fontSize=12;html=1;endArrow=ERoneToMany;rounded=0;exitX=0;exitY=0.75;exitDx=0;exitDy=0;entryX=1;entryY=0.25;entryDx=0;entryDy=0;" edge="1" parent="1" source="-5HofX6V-b1JRLDoJA_T-4" target="-5HofX6V-b1JRLDoJA_T-21">
          <mxGeometry width="100" height="100" relative="1" as="geometry">
            <mxPoint x="733" y="684.75" as="sourcePoint" />
            <mxPoint x="927" y="568" as="targetPoint" />
          </mxGeometry>
        </mxCell>
        <mxCell id="-5HofX6V-b1JRLDoJA_T-20" value="next_actions_contexts" style="swimlane;childLayout=stackLayout;horizontal=1;startSize=50;horizontalStack=0;rounded=1;fontSize=14;fontStyle=0;strokeWidth=2;resizeParent=0;resizeLast=1;shadow=0;dashed=0;align=center;arcSize=4;whiteSpace=wrap;html=1;" vertex="1" parent="1">
          <mxGeometry x="620" y="584" width="191" height="116" as="geometry" />
        </mxCell>
        <mxCell id="-5HofX6V-b1JRLDoJA_T-21" value="+ contexts.context_id [FK]&lt;div&gt;+ next_actions.next_action_id [FK]&lt;/div&gt;" style="align=left;strokeColor=none;fillColor=none;spacingLeft=4;spacingRight=4;fontSize=12;verticalAlign=top;resizable=0;rotatable=0;part=1;html=1;whiteSpace=wrap;" vertex="1" parent="-5HofX6V-b1JRLDoJA_T-20">
          <mxGeometry y="50" width="191" height="66" as="geometry" />
        </mxCell>
        <mxCell id="-5HofX6V-b1JRLDoJA_T-22" value="" style="edgeStyle=entityRelationEdgeStyle;fontSize=12;html=1;endArrow=ERoneToMany;rounded=0;exitX=1;exitY=0.25;exitDx=0;exitDy=0;entryX=0;entryY=0.25;entryDx=0;entryDy=0;" edge="1" parent="1" source="-5HofX6V-b1JRLDoJA_T-10" target="-5HofX6V-b1JRLDoJA_T-21">
          <mxGeometry width="100" height="100" relative="1" as="geometry">
            <mxPoint x="470" y="601" as="sourcePoint" />
            <mxPoint x="624" y="696" as="targetPoint" />
            <Array as="points">
              <mxPoint x="810" y="766" />
              <mxPoint x="742" y="727" />
              <mxPoint x="697" y="723" />
              <mxPoint x="791" y="652" />
            </Array>
          </mxGeometry>
        </mxCell>
        <mxCell id="-5HofX6V-b1JRLDoJA_T-23" value="projects_next_actions" style="swimlane;childLayout=stackLayout;horizontal=1;startSize=50;horizontalStack=0;rounded=1;fontSize=14;fontStyle=0;strokeWidth=2;resizeParent=0;resizeLast=1;shadow=0;dashed=0;align=center;arcSize=4;whiteSpace=wrap;html=1;" vertex="1" parent="1">
          <mxGeometry x="760" y="80" width="191" height="116" as="geometry" />
        </mxCell>
        <mxCell id="-5HofX6V-b1JRLDoJA_T-24" value="+ projects.project_id [FK]&lt;div&gt;+ next_actions.next_action_id [FK]&lt;/div&gt;" style="align=left;strokeColor=none;fillColor=none;spacingLeft=4;spacingRight=4;fontSize=12;verticalAlign=top;resizable=0;rotatable=0;part=1;html=1;whiteSpace=wrap;" vertex="1" parent="-5HofX6V-b1JRLDoJA_T-23">
          <mxGeometry y="50" width="191" height="66" as="geometry" />
        </mxCell>
        <mxCell id="-5HofX6V-b1JRLDoJA_T-25" value="" style="edgeStyle=entityRelationEdgeStyle;fontSize=12;html=1;endArrow=ERoneToMany;rounded=0;exitX=0.5;exitY=0;exitDx=0;exitDy=0;entryX=1;entryY=0.25;entryDx=0;entryDy=0;" edge="1" parent="1" source="-5HofX6V-b1JRLDoJA_T-3" target="-5HofX6V-b1JRLDoJA_T-24">
          <mxGeometry width="100" height="100" relative="1" as="geometry">
            <mxPoint x="771" y="249" as="sourcePoint" />
            <mxPoint x="859" y="200" as="targetPoint" />
            <Array as="points">
              <mxPoint x="980" y="240" />
              <mxPoint x="990" y="210" />
              <mxPoint x="853" y="324" />
              <mxPoint x="785" y="285" />
              <mxPoint x="740" y="281" />
              <mxPoint x="834" y="210" />
            </Array>
          </mxGeometry>
        </mxCell>
      </root>
    </mxGraphModel>
  </diagram>
</mxfile>
